<?xml version="1.0" encoding="UTF-8" standalone="no"?>
<svg
   height="368.43152"
   version="1.2"
   width="923.26801"
   id="svg14"
   sodipodi:docname="name_and_logo.svg"
   viewBox="0 0 923.26801 368.43175"
   inkscape:version="1.4 (e7c3feb100, 2024-10-09)"
   xml:space="preserve"
   inkscape:export-filename="name_and_logo.png"
   inkscape:export-xdpi="300"
   inkscape:export-ydpi="300"
   xmlns:inkscape="http://www.inkscape.org/namespaces/inkscape"
   xmlns:sodipodi="http://sodipodi.sourceforge.net/DTD/sodipodi-0.dtd"
   xmlns:xlink="http://www.w3.org/1999/xlink"
   xmlns="http://www.w3.org/2000/svg"
   xmlns:svg="http://www.w3.org/2000/svg"><sodipodi:namedview
     id="namedview14"
     pagecolor="#ffffff"
     bordercolor="#000000"
     borderopacity="0.25"
     inkscape:showpageshadow="2"
     inkscape:pageopacity="0.0"
     inkscape:pagecheckerboard="0"
     inkscape:deskcolor="#d1d1d1"
     inkscape:zoom="1.4142136"
     inkscape:cx="444.77017"
     inkscape:cy="177.83736"
     inkscape:window-width="2517"
     inkscape:window-height="1242"
     inkscape:window-x="26"
     inkscape:window-y="23"
     inkscape:window-maximized="0"
     inkscape:current-layer="svg14" /><defs
     id="defs1"><inkscape:perspective
       sodipodi:type="inkscape:persp3d"
       inkscape:vp_x="0 : 184.21588 : 1"
       inkscape:vp_y="0 : 1000 : 0"
       inkscape:vp_z="923.26801 : 184.21588 : 1"
       inkscape:persp3d-origin="461.63401 : 122.81058 : 1"
       id="perspective53" /><inkscape:path-effect
       effect="fillet_chamfer"
       id="path-effect25"
       is_visible="true"
       lpeversion="1"
       nodesatellites_param="F,0,0,1,0,0,0,1 @ F,0,0,1,0,0,0,1 @ F,0,0,1,0,0,0,1 @ F,0,0,1,0,0,0,1"
       radius="0"
       unit="px"
       method="auto"
       mode="F"
       chamfer_steps="1"
       flexible="false"
       use_knot_distance="true"
       apply_no_radius="true"
       apply_with_radius="true"
       only_selected="false"
       hide_knots="false" /><linearGradient
       id="linearGradient25"
       inkscape:collect="always"
       inkscape:label="Quicksilvra"><stop
         style="stop-color:#244878;stop-opacity:1;"
         offset="0"
         id="stop24" /><stop
         style="stop-color:#43b9e2;stop-opacity:1;"
         offset="1"
         id="stop25" /></linearGradient><linearGradient
       id="linearGradient19"
       inkscape:collect="always"
       inkscape:label="Quicksilvra"><stop
         style="stop-color:#244878;stop-opacity:1;"
         offset="0"
         id="stop19" /><stop
         style="stop-color:#43b9e2;stop-opacity:1;"
         offset="1"
         id="stop20" /></linearGradient><linearGradient
       inkscape:collect="always"
       xlink:href="#linearGradient19"
       id="linearGradient22"
       x1="21.361841"
       y1="106.48321"
       x2="174.24193"
       y2="106.48321"
       gradientUnits="userSpaceOnUse" /><linearGradient
       inkscape:collect="always"
       xlink:href="#linearGradient25"
       id="linearGradient24"
       x1="237.26102"
       y1="-21.879713"
       x2="647.30835"
       y2="224.50157"
       gradientUnits="userSpaceOnUse"
       gradientTransform="translate(72.47669,207.59047)"
       spreadMethod="pad" /></defs><path
     id="text14"
     style="font-style:normal;font-variant:normal;font-weight:normal;font-stretch:normal;font-size:96px;font-family:Comfortaa;-inkscape-font-specification:'Comfortaa, Normal';font-variant-ligatures:normal;font-variant-caps:normal;font-variant-numeric:normal;font-variant-east-asian:normal;text-align:start;letter-spacing:19.48px;writing-mode:lr-tb;direction:ltr;text-anchor:start;opacity:1;fill:url(#linearGradient24);fill-opacity:1;fill-rule:nonzero;stroke:none"
     d="M 136.38867 248.55078 C 114.21267 248.55078 98.083984 264.87117 98.083984 286.95117 C 98.083984 309.12717 114.21267 325.44727 136.38867 325.44727 C 145.31667 325.44727 153.18744 322.85409 159.52344 318.24609 L 164.61133 323.33594 C 166.14733 324.87194 168.25892 324.87194 169.79492 323.33594 C 171.23492 321.79994 171.23492 319.78209 169.79492 318.24609 L 164.90039 313.44727 C 171.04439 306.63127 174.69141 297.51117 174.69141 286.95117 C 174.69141 264.87117 158.46867 248.55078 136.38867 248.55078 z M 420.61133 249.51172 C 418.40333 249.51172 416.96289 250.9502 416.96289 253.1582 L 416.96289 320.83984 C 416.96289 323.04784 418.40333 324.48633 420.61133 324.48633 C 422.72333 324.48633 424.25977 323.04784 424.25977 320.83984 L 424.25977 305.86328 L 431.45898 299.23828 L 451.23633 323.52734 C 452.48433 325.15934 454.49886 325.35181 456.13086 324.00781 C 457.76286 322.66381 457.85933 320.74303 456.61133 319.20703 L 436.64453 294.63086 L 455.84375 277.25586 C 457.37975 275.91186 457.47516 274.08678 456.03516 272.55078 C 454.69116 271.01478 452.86803 271.01537 451.33203 272.35938 L 424.25977 296.83984 L 424.25977 253.1582 C 424.25977 250.9502 422.72333 249.51172 420.61133 249.51172 z M 611.53125 249.51172 C 609.41925 249.51172 607.88281 251.0462 607.88281 253.1582 L 607.88281 307.87891 C 607.88281 317.57491 613.35486 324.48633 621.13086 324.48633 L 622.37891 324.48633 C 624.97091 324.48633 626.69922 322.95184 626.69922 320.83984 C 626.69922 318.63184 625.45125 317.19141 623.53125 317.19141 L 621.13086 317.19141 C 617.67486 317.19141 615.17969 313.35091 615.17969 307.87891 L 615.17969 253.1582 C 615.17969 251.0462 613.73925 249.51172 611.53125 249.51172 z M 136.38867 255.6543 C 154.14867 255.6543 167.30078 269.19117 167.30078 286.95117 C 167.30078 291.95478 166.19376 296.54426 164.33984 300.65234 A 24.285109 25.474686 0 0 1 150.66211 315.05078 C 146.42055 317.16981 141.58564 318.34375 136.38867 318.34375 C 118.53267 318.34375 105.37891 304.80717 105.37891 286.95117 C 105.37891 269.19117 118.53267 255.6543 136.38867 255.6543 z M 749.75586 271.39844 C 743.03586 271.39844 737.08384 274.56795 733.33984 279.75195 L 733.33984 275.62305 C 733.33984 273.31905 731.99541 271.97461 729.69141 271.97461 C 727.38741 271.97461 726.04297 273.31905 726.04297 275.62305 L 726.04297 320.83984 C 726.04297 323.14384 727.38741 324.48633 729.69141 324.48633 C 731.99541 324.48633 733.33984 323.14384 733.33984 320.83984 L 733.33984 292.13477 C 733.33984 283.20677 741.21089 277.44625 751.96289 278.40625 C 755.13089 278.59825 757.72448 279.17492 758.39648 276.29492 C 759.16448 273.12692 755.70786 271.39844 749.75586 271.39844 z M 362.82812 271.49414 C 348.14013 271.49414 337.58008 282.8233 337.58008 298.2793 C 337.58008 313.4473 348.61911 324.9668 363.78711 324.9668 C 370.69911 324.9668 376.74777 322.75916 381.25977 318.53516 C 382.69977 317.19116 382.507 315.27008 380.875 313.83008 C 379.531 312.67808 377.61187 312.87114 376.17188 314.11914 C 373.00387 316.90314 368.77911 318.24609 363.78711 318.24609 C 352.55511 318.24609 344.7793 309.7033 344.7793 298.2793 C 344.7793 286.5673 352.07615 278.21484 362.82812 278.21484 C 368.58813 278.21484 373.00375 280.32678 376.84375 284.55078 C 378.18775 286.08678 380.01117 286.37406 381.45117 285.41406 C 383.27517 284.16606 383.66041 282.34294 382.31641 280.71094 C 377.32441 274.56694 370.70015 271.49414 362.82812 271.49414 z M 509.5 271.49414 C 499.132 271.49414 490.49219 276.48759 490.49219 286.18359 C 490.49219 293.19159 496.34694 298.56769 509.21094 300.67969 C 519.19494 302.31169 523.22852 305.38253 523.22852 309.89453 C 523.13252 314.50253 519.09941 318.24609 509.69141 318.24609 C 503.64341 318.24609 498.26731 316.32769 495.19531 312.67969 C 493.85131 311.23969 491.83572 310.85522 490.01172 312.19922 C 488.28372 313.54322 487.99555 315.75111 489.43555 317.28711 C 494.04355 322.37511 502.10741 324.9668 509.69141 324.9668 C 521.69141 324.9668 530.33203 318.72683 530.33203 309.79883 C 530.33203 302.69483 525.62852 296.93516 511.22852 294.53516 C 500.76452 292.80716 497.69141 290.11915 497.69141 285.70312 C 497.69141 281.38313 502.20459 278.11914 509.30859 278.11914 C 514.87659 278.11914 519.00387 279.84614 522.17188 283.49414 C 523.51585 284.93414 525.81947 285.41508 527.35547 284.45508 C 529.17947 283.30308 529.37105 281.3823 528.12305 279.6543 C 524.37905 274.6623 518.14 271.49414 509.5 271.49414 z M 809.55469 271.49414 C 794.29069 271.49414 782.86719 283.0153 782.86719 298.2793 C 782.86719 313.5433 794.00311 324.9668 808.78711 324.9668 C 817.23511 324.9668 824.43586 321.12642 828.75586 314.98242 L 828.75586 320.83984 C 828.75586 322.95184 830.292 324.48633 832.5 324.48633 C 834.612 324.48633 836.24414 322.95184 836.24414 320.83984 L 836.24414 298.2793 C 836.14814 283.0153 824.72269 271.49414 809.55469 271.49414 z M 692.98828 271.91016 C 691.61128 271.84266 690.31597 272.59853 689.66797 273.89453 L 671.42773 313.83008 L 652.99609 273.89453 C 652.13209 272.16653 650.21236 271.49538 648.48438 272.35938 C 646.66035 273.22337 645.89216 275.14339 646.66016 276.77539 L 667.9707 321.99023 C 668.7387 323.71823 669.89173 324.48633 671.42773 324.48633 C 672.96373 324.48633 674.21217 323.71823 675.07617 321.99023 L 696.09961 276.67969 C 696.86761 275.04769 696.19509 273.12767 694.37109 272.26367 C 693.91509 272.04767 693.44728 271.93266 692.98828 271.91016 z M 211.35547 271.97461 C 209.24347 271.97461 207.70703 273.51105 207.70703 275.62305 L 207.70703 300.58203 C 207.70703 316.42203 217.97964 325.0625 231.51562 325.0625 C 238.61962 325.0625 244.76428 322.18252 248.98828 317.47852 L 248.98828 320.74219 C 248.98828 322.95019 250.42872 324.48633 252.63672 324.48633 C 254.84472 324.48633 256.37891 322.95019 256.37891 320.74219 L 256.37891 275.62305 C 256.37891 273.41505 254.84472 271.97461 252.63672 271.97461 C 250.42872 271.97461 248.98828 273.41505 248.98828 275.62305 L 248.98828 304.03906 C 248.98828 312.00706 241.6912 318.05469 232.2832 318.05469 C 222.4912 318.05469 215.09961 312.39003 215.09961 300.58203 L 215.09961 275.62305 C 215.09961 273.51105 213.46747 271.97461 211.35547 271.97461 z M 298.41992 271.97461 C 296.21192 271.97461 294.67578 273.51075 294.67578 275.71875 L 294.67578 320.74219 C 294.67578 322.95019 296.21192 324.48633 298.41992 324.48633 C 300.53192 324.48633 302.06836 322.95019 302.06836 320.74219 L 302.06836 275.71875 C 302.06836 273.51075 300.53192 271.97461 298.41992 271.97461 z M 567.85938 271.97461 C 565.65138 271.97461 564.11523 273.51075 564.11523 275.71875 L 564.11523 320.74219 C 564.11523 322.95019 565.65137 324.48633 567.85938 324.48633 C 569.97136 324.48633 571.50781 322.95019 571.50781 320.74219 L 571.50781 275.71875 C 571.50781 273.51075 569.97136 271.97461 567.85938 271.97461 z M 809.55469 278.21484 C 820.59469 278.21484 828.94727 286.8553 828.94727 298.2793 C 828.94727 309.7033 820.59469 318.24609 809.55469 318.24609 C 798.51469 318.24609 790.06836 309.7033 790.06836 298.2793 C 790.06836 286.8553 798.51469 278.21484 809.55469 278.21484 z " /><rect
     style="opacity:1;fill:#244878;fill-opacity:1;fill-rule:nonzero;stroke:none;stroke-width:0.424424"
     id="rect25"
     width="25.862068"
     height="6.4655185"
     x="230.4957"
     y="318.62076"
     sodipodi:type="rect"
     rx="2.1621621" /><rect
     style="fill:#43b9e2;fill-opacity:1;fill-rule:nonzero;stroke:none;stroke-width:0.450784"
     id="rect25-1"
     width="29.158478"
     height="6.4690032"
     x="807.07465"
     y="318.47852"
     sodipodi:type="rect"
     rx="2.4377534" /><rect
     style="fill:#43b9e2;fill-opacity:1;fill-rule:nonzero;stroke:none;stroke-width:0.219001"
     id="rect25-1-9"
     width="9.181035"
     height="4.8491392"
     x="824.73657"
     y="313.90729"
     sodipodi:type="rect"
     rx="0.76756752" /><rect
     style="fill:#244878;fill-opacity:1;fill-rule:nonzero;stroke:none;stroke-width:0.164173"
     id="rect25-2"
     width="6.1422405"
     height="4.073277"
     x="245.97415"
     y="316.50861"
     sodipodi:type="rect"
     rx="0.51351345" /><path
     style="fill:#72a6b2;fill-opacity:1"
     d="m 370.48807,181 34,-20 16,-28 -6,-4 23,-38 6,2 19,-32 V 22 h -5 l -90,155 1,4 z"
     id="path1" /><path
     style="fill:#72a6b2;fill-opacity:1"
     d="m 562.7203,181.17157 -34,-20 -16,-28 6,-4 -23,-37.999997 -6,2 -19,-32 v -39 h 5 l 90,154.999997 -1,4 z"
     id="path2" /><path
     style="fill:#72a6b2;fill-opacity:1"
     d="m 374.48807,190 1,3 h 51 l 13,-8 h 58 l 13,8 h 47 l 1,-3 -32,-20 h -120 l -32,19 z"
     id="path3" /></svg>
